<svg width="32" height="32" viewBox="0 0 32 32" fill="none" xmlns="http://www.w3.org/2000/svg">
<path d="M19.3928 16.498C21.7335 15.2727 23.3335 12.8253 23.3335 9.99999C23.3335 5.94999 20.0502 2.66666 16.0002 2.66666C11.9502 2.66666 8.66683 5.94999 8.66683 9.99999C8.66683 12.8253 10.2668 15.2727 12.6075 16.498C7.26016 18.06 3.3335 23.206 3.3335 29.3333H28.6668C28.6668 23.206 24.7402 18.06 19.3928 16.498ZM10.0002 9.99999C10.0002 6.69132 12.6915 3.99999 16.0002 3.99999C19.3088 3.99999 22.0002 6.69132 22.0002 9.99999C22.0002 13.3087 19.3088 16 16.0002 16C12.6915 16 10.0002 13.3087 10.0002 9.99999ZM16.0002 17.3333C21.8235 17.3333 26.6355 22.0087 27.2642 28H4.73616C5.36483 22.0087 10.1768 17.3333 16.0002 17.3333Z" fill="#2C2C2C"/>
</svg>
