<svg width="160" height="48" viewBox="0 0 160 48" fill="none" xmlns="http://www.w3.org/2000/svg">
<g clip-path="url(#clip0_657_580)">
<path d="M158.939 42.112C158.939 44.6213 156.906 46.6537 154.392 46.6537H5.60771C3.09494 46.6537 1.05542 44.6213 1.05542 42.112V5.89334C1.05542 3.38532 3.09504 1.3457 5.60771 1.3457H154.391C156.906 1.3457 158.937 3.38532 158.937 5.89334L158.939 42.112Z" fill="white"/>
<path d="M154.392 47.7103H5.60777C2.51632 47.7103 0 45.1999 0 42.112V5.8945C0 2.80423 2.51632 0.290283 5.60777 0.290283H154.391C157.479 0.290283 159.999 2.80423 159.999 5.8945V42.112C160.001 45.1999 157.481 47.7103 154.392 47.7103Z" fill="#A6A6A6"/>
<path d="M158.939 42.112C158.939 44.6213 156.906 46.6537 154.392 46.6537H5.60771C3.09494 46.6537 1.05542 44.6213 1.05542 42.112V5.89334C1.05542 3.38532 3.09504 1.3457 5.60771 1.3457H154.391C156.906 1.3457 158.937 3.38532 158.937 5.89334L158.939 42.112Z" fill="#252525"/>
<path d="M35.7266 23.7509C35.6922 19.929 38.856 18.0696 39.0007 17.9831C37.2089 15.3707 34.4318 15.0138 33.4559 14.9853C31.1234 14.7398 28.8608 16.381 27.6726 16.381C26.4607 16.381 24.631 15.009 22.6589 15.0494C20.1213 15.0885 17.7473 16.5577 16.4452 18.8392C13.7582 23.4912 15.7622 30.3275 18.3367 34.0878C19.6244 35.9306 21.1293 37.9856 23.0989 37.9133C25.0258 37.835 25.7456 36.6859 28.071 36.6859C30.375 36.6859 31.051 37.9133 33.0597 37.867C35.1279 37.835 36.4298 36.0171 37.6727 34.1589C39.1609 32.0493 39.7584 29.9694 39.7823 29.8627C39.7347 29.8461 35.7669 28.3306 35.7266 23.7509ZM31.932 12.5117C32.9683 11.2156 33.6775 9.45225 33.4807 7.66284C31.9805 7.72925 30.1046 8.70044 29.0242 9.96809C28.0685 11.0851 27.2147 12.9161 27.4352 14.6379C29.1204 14.7636 30.8505 13.7876 31.932 12.5117Z" fill="white"/>
<path d="M154.392 0.290283H74.6985L105.913 47.7103H154.392C157.48 47.7103 160 45.1999 160 42.1084V5.8945C160.001 2.80423 157.481 0.290283 154.392 0.290283Z" fill="#252525"/>
<path d="M63.6372 37.6484H60.9442L59.469 33.013H54.3414L52.9362 37.6484H50.3145L55.3957 21.8674H58.5334L63.6372 37.6484ZM59.0244 31.0683L57.6904 26.9475C57.5493 26.5266 57.2836 25.5352 56.8946 23.9747H56.8473C56.6907 24.6458 56.4405 25.6372 56.0978 26.9475L54.7863 31.0683H59.0244ZM76.679 31.8189C76.679 33.7542 76.1537 35.2839 75.1018 36.4069C74.1603 37.4065 72.9899 37.9058 71.5941 37.9058C70.0869 37.9058 69.0031 37.3686 68.3449 36.2919V42.2626H65.8168V30.0093C65.8168 28.7938 65.7848 27.5475 65.7232 26.2692H67.9466L68.0877 28.0729H68.135C68.9782 26.7139 70.2577 26.0343 71.9747 26.0343C73.3171 26.0343 74.4377 26.5644 75.3342 27.6257C76.2295 28.6895 76.679 30.0864 76.679 31.8189ZM74.1033 31.9114C74.1033 30.8038 73.8543 29.8907 73.3539 29.1709C72.8072 28.4227 72.0732 28.0481 71.153 28.0481C70.5292 28.0481 69.9624 28.2567 69.4561 28.6682C68.9485 29.0832 68.6165 29.6251 68.4612 30.2963C68.383 30.6094 68.3438 30.8643 68.3438 31.066V32.9644C68.3438 33.7909 68.5976 34.4895 69.1051 35.061C69.6127 35.6302 70.272 35.9159 71.0831 35.9159C72.0354 35.9159 72.7766 35.5472 73.3065 34.8155C73.8377 34.0814 74.1033 33.1138 74.1033 31.9114ZM89.7669 31.8189C89.7669 33.7542 89.2416 35.2839 88.1897 36.4069C87.247 37.4065 86.0778 37.9058 84.6809 37.9058C83.1737 37.9058 82.0898 37.3686 81.4317 36.2919V42.2626H78.9035V30.0093C78.9035 28.7938 78.8715 27.5475 78.8098 26.2692H81.0333L81.1744 28.0729H81.2218C82.0637 26.7139 83.3433 26.0343 85.0614 26.0343C86.4026 26.0343 87.5232 26.5644 88.4221 27.6257C89.3164 28.6895 89.7669 30.0864 89.7669 31.8189ZM87.1901 31.9114C87.1901 30.8038 86.94 29.8907 86.4394 29.1709C85.8928 28.4227 85.1611 28.0481 84.2409 28.0481C83.6172 28.0481 83.0504 28.2567 82.5416 28.6682C82.0341 29.0832 81.7034 29.6251 81.5479 30.2963C81.4708 30.6094 81.4293 30.8643 81.4293 31.066V32.9644C81.4293 33.7909 81.6843 34.4895 82.1894 35.061C82.697 35.629 83.3563 35.9159 84.1698 35.9159C85.1231 35.9159 85.8642 35.5472 86.3932 34.8155C86.9244 34.0814 87.1901 33.1138 87.1901 31.9114ZM104.4 33.2217C104.4 34.5653 103.93 35.6574 102.997 36.5005C101.97 37.4207 100.537 37.882 98.6985 37.882C97.0004 37.882 95.6391 37.5547 94.6122 36.899L95.1968 34.7918C96.3055 35.4487 97.5234 35.776 98.8491 35.776C99.8025 35.776 100.544 35.5602 101.073 35.1321C101.602 34.7028 101.871 34.1289 101.871 33.4126C101.871 32.7712 101.649 32.2339 101.214 31.7965C100.776 31.3601 100.053 30.9533 99.0366 30.5798C96.2735 29.5493 94.8908 28.0421 94.8908 26.0594C94.8908 24.7645 95.3794 23.7044 96.3542 22.8755C97.329 22.0478 98.6215 21.634 100.23 21.634C101.666 21.634 102.862 21.8842 103.812 22.3835L103.177 24.4443C102.283 23.9605 101.274 23.7186 100.145 23.7186C99.2536 23.7186 98.5538 23.938 98.0534 24.3744C97.6325 24.7645 97.419 25.2401 97.419 25.8045C97.419 26.4271 97.6622 26.9442 98.1459 27.3497C98.5657 27.7231 99.3317 28.13 100.439 28.5664C101.798 29.1142 102.797 29.7522 103.436 30.485C104.08 31.2177 104.4 32.132 104.4 33.2217ZM112.78 28.1665H109.993V33.6913C109.993 35.0965 110.485 35.7973 111.469 35.7973C111.92 35.7973 112.295 35.7593 112.592 35.6799L112.662 37.5998C112.164 37.7861 111.508 37.8796 110.696 37.8796C109.697 37.8796 108.917 37.5749 108.354 36.9654C107.793 36.3559 107.51 35.3349 107.51 33.8976V28.1618H105.85V26.2645H107.51V24.181L109.993 23.4315V26.2645H112.78V28.1665ZM125.329 31.8651C125.329 33.6141 124.828 35.0502 123.83 36.1732C122.785 37.3294 121.395 37.9057 119.663 37.9057C117.991 37.9057 116.661 37.352 115.67 36.2456C114.679 35.1367 114.183 33.7399 114.183 32.0549C114.183 30.2914 114.695 28.8472 115.716 27.7242C116.74 26.6001 118.118 26.0381 119.85 26.0381C121.52 26.0381 122.861 26.593 123.876 27.7005C124.846 28.7749 125.329 30.1623 125.329 31.8651ZM122.708 31.9232C122.708 30.8808 122.483 29.9867 122.031 29.2384C121.501 28.3348 120.742 27.8831 119.759 27.8831C118.746 27.8831 117.969 28.3348 117.44 29.2384C116.987 29.9867 116.762 30.8962 116.762 31.9706C116.762 33.0142 116.987 33.9106 117.44 34.6566C117.987 35.5602 118.75 36.012 119.737 36.012C120.704 36.012 121.462 35.5507 122.009 34.634C122.474 33.868 122.708 32.968 122.708 31.9232ZM133.55 28.4927C133.3 28.4463 133.032 28.4226 132.753 28.4226C131.864 28.4226 131.176 28.7571 130.692 29.4305C130.273 30.0235 130.061 30.7729 130.061 31.6777V37.6483H127.533V29.8528C127.533 28.5425 127.508 27.3471 127.46 26.2704H129.662L129.754 28.4475H129.824C130.092 27.6993 130.512 27.0957 131.088 26.6439C131.652 26.2372 132.26 26.0343 132.916 26.0343C133.149 26.0343 133.36 26.0509 133.548 26.0807L133.55 28.4927ZM144.857 31.4205C144.857 31.8734 144.827 32.2552 144.764 32.5671H137.18C137.208 33.6913 137.576 34.5522 138.28 35.1451C138.919 35.6741 139.746 35.9396 140.761 35.9396C141.884 35.9396 142.908 35.7618 143.83 35.4025L144.226 37.1563C143.149 37.6259 141.878 37.8595 140.411 37.8595C138.647 37.8595 137.262 37.34 136.254 36.3037C135.248 35.2661 134.744 33.8716 134.744 32.1248C134.744 30.41 135.213 28.9812 136.15 27.8416C137.132 26.625 138.459 26.0165 140.129 26.0165C141.769 26.0165 143.01 26.6249 143.854 27.8416C144.521 28.8057 144.857 30.001 144.857 31.4205ZM142.446 30.7647C142.464 30.0141 142.298 29.3678 141.955 28.8211C141.517 28.1167 140.844 27.7657 139.942 27.7657C139.115 27.7657 138.441 28.1084 137.929 28.7962C137.508 29.3429 137.258 29.9998 137.181 30.7623L142.446 30.7647Z" fill="white"/>
<path d="M57.8053 16.2198H56.4806L55.7561 13.9418H53.2362L52.5449 16.2198H51.2559L53.7532 8.46327H55.2948L57.8053 16.2198ZM55.5379 12.986L54.8821 10.9606C54.8133 10.7531 54.6865 10.2705 54.4908 9.49969H54.4671C54.3864 9.8329 54.2714 10.3167 54.0983 10.9606L53.4544 12.986H55.5379ZM64.0497 10.6274L61.9318 16.2198H60.7234L58.6744 10.6274H60.0096L60.9654 13.5849C61.1267 14.0793 61.2642 14.5513 61.3674 14.9995H61.4018C61.4944 14.5976 61.6318 14.1256 61.8038 13.5849L62.7477 10.6274H64.0497ZM68.5582 16.2198L68.4657 15.5758H68.4313C68.0518 16.094 67.4992 16.3465 66.7973 16.3465C65.7964 16.3465 65.0825 15.6445 65.0825 14.7006C65.0825 13.3203 66.279 12.6064 68.3506 12.6064V12.5033C68.3506 11.7669 67.9593 11.3981 67.1885 11.3981C66.6358 11.3981 66.1521 11.5368 65.7276 11.8131L65.4749 10.9961C65.9931 10.6736 66.6371 10.5123 67.3971 10.5123C68.8581 10.5123 69.5956 11.2831 69.5956 12.8258V14.8856C69.5956 15.4501 69.6194 15.8876 69.6763 16.2208L68.5582 16.2198ZM68.3851 13.4343C67.0037 13.4343 66.3135 13.7687 66.3135 14.562C66.3135 15.149 66.6704 15.4359 67.1649 15.4359C67.798 15.4359 68.3851 14.9533 68.3851 14.2975V13.4343ZM72.3636 9.70602C71.9497 9.70602 71.6272 9.38347 71.6272 8.95776C71.6272 8.53205 71.9605 8.22137 72.3873 8.22137C72.813 8.22137 73.1581 8.53205 73.1463 8.95776C73.1463 9.40719 72.8249 9.70602 72.3636 9.70602ZM73.0086 16.2198H71.7659V10.6274H73.0086V16.2198ZM76.4594 16.2198H75.2167V8.06128H76.4594V16.2198ZM81.7411 16.2198L81.6485 15.5758H81.6142C81.2347 16.094 80.6821 16.3465 79.9801 16.3465C78.9793 16.3465 78.2654 15.6445 78.2654 14.7006C78.2654 13.3203 79.4618 12.6064 81.5335 12.6064V12.5033C81.5335 11.7669 81.1421 11.3981 80.3713 11.3981C79.8187 11.3981 79.3349 11.5368 78.9104 11.8131L78.6567 10.9949C79.1749 10.6724 79.8188 10.5111 80.579 10.5111C82.0399 10.5111 82.7774 11.2819 82.7774 12.8246V14.8844C82.7774 15.4489 82.8024 15.8864 82.8569 16.2197L81.7411 16.2198ZM81.5679 13.4343C80.1865 13.4343 79.4963 13.7687 79.4963 14.562C79.4963 15.149 79.8531 15.4359 80.3476 15.4359C80.9809 15.4359 81.5679 14.9533 81.5679 14.2975V13.4343ZM87.8126 16.3466C87.0193 16.3466 86.4334 16.0122 86.0539 15.3565H86.029L85.9579 16.2198H84.8989C84.9333 15.7715 84.9452 15.264 84.9452 14.7126V8.06128H86.1891V11.4456H86.2128C86.5815 10.8243 87.1782 10.5136 87.9963 10.5136C89.3434 10.5136 90.2873 11.665 90.2873 13.3441C90.2873 15.0802 89.239 16.3466 87.8126 16.3466ZM87.5599 11.4895C86.8449 11.4895 86.1904 12.1109 86.1904 12.9742V13.9525C86.1904 14.7232 86.7785 15.3565 87.5387 15.3565C88.4695 15.3565 89.0233 14.5975 89.0233 13.3892C89.022 12.2615 88.4457 11.4895 87.5599 11.4895ZM93.3669 16.2198H92.1254V8.06128H93.3669V16.2198ZM100.132 13.7224H96.4015C96.4264 14.7814 97.126 15.379 98.1624 15.379C98.715 15.379 99.2213 15.2865 99.6696 15.1146L99.8629 15.9779C99.334 16.2079 98.7126 16.3229 97.9881 16.3229C96.2378 16.3229 95.2026 15.2177 95.2026 13.5042C95.2026 11.7895 96.2628 10.5005 97.8481 10.5005C99.2748 10.5005 100.174 11.5595 100.174 13.1591C100.178 13.3773 100.168 13.573 100.132 13.7224ZM98.9925 12.8366C98.9925 11.9733 98.5548 11.3638 97.7604 11.3638C97.0464 11.3638 96.4844 11.9852 96.4014 12.8366H98.9925ZM107.664 16.3466C106.03 16.3466 104.971 15.1264 104.971 13.4698C104.971 11.7433 106.053 10.5124 107.758 10.5124C109.367 10.5124 110.451 11.6745 110.451 13.3785C110.451 15.1264 109.334 16.3466 107.664 16.3466ZM107.712 11.4207C106.814 11.4207 106.239 12.2603 106.239 13.4343C106.239 14.5857 106.826 15.4253 107.7 15.4253C108.574 15.4253 109.16 14.5276 109.16 13.4105C109.161 12.2721 108.586 11.4207 107.712 11.4207ZM117.132 16.2198H115.891V13.0085C115.891 12.0196 115.511 11.5239 114.763 11.5239C114.026 11.5239 113.519 12.1571 113.519 12.8935V16.2198H112.277V12.2259C112.277 11.7314 112.264 11.2013 112.231 10.6262H113.324L113.383 11.4895H113.417C113.749 10.8918 114.43 10.5112 115.189 10.5112C116.361 10.5112 117.132 11.4089 117.132 12.8698L117.132 16.2198ZM125.263 11.5595H123.896V14.275C123.896 14.9663 124.137 15.3114 124.619 15.3114C124.839 15.3114 125.024 15.2877 125.172 15.2533L125.206 16.1972C124.964 16.2898 124.641 16.336 124.241 16.336C123.262 16.336 122.677 15.7952 122.677 14.3794V11.5595H121.861V10.6274H122.677V9.60285L123.896 9.23406V10.6262H125.263V11.5595ZM131.845 16.2198H130.601V13.0323C130.601 12.0314 130.221 11.5251 129.473 11.5251C128.829 11.5251 128.231 11.9626 128.231 12.8485V16.2198H126.988V8.06128H128.231V11.4207H128.255C128.646 10.8112 129.211 10.5112 129.936 10.5112C131.12 10.5112 131.845 11.4314 131.845 12.8935V16.2198ZM138.195 13.7224H134.465C134.489 14.7814 135.189 15.379 136.225 15.379C136.779 15.379 137.284 15.2865 137.732 15.1146L137.927 15.9779C137.398 16.2079 136.775 16.3229 136.051 16.3229C134.301 16.3229 133.265 15.2177 133.265 13.5042C133.265 11.7895 134.326 10.5005 135.911 10.5005C137.338 10.5005 138.236 11.5595 138.236 13.1591C138.241 13.3773 138.229 13.573 138.195 13.7224ZM137.055 12.8366C137.055 11.9733 136.619 11.3638 135.824 11.3638C135.109 11.3638 134.547 11.9852 134.465 12.8366H137.055Z" fill="white"/>
</g>
<defs>
<clipPath id="clip0_657_580">
<rect width="160" height="48" fill="white"/>
</clipPath>
</defs>
</svg>
