<svg width="215" height="48" viewBox="0 0 215 48" fill="none" xmlns="http://www.w3.org/2000/svg">
<path d="M10.025 14.09C10.025 14.39 10.1 14.66 10.25 14.9C10.43 15.14 10.715 15.26 11.105 15.26H11.96C12.95 15.26 13.85 15.185 14.66 15.035C15.5 14.855 16.22 14.54 16.82 14.09C17.42 13.64 17.885 13.04 18.215 12.29C18.575 11.51 18.755 10.505 18.755 9.275C18.755 7.205 18.23 5.735 17.18 4.865C16.16 3.965 14.675 3.515 12.725 3.515H11.195C10.625 3.515 10.28 3.68 10.16 4.01C10.07 4.31 10.025 4.835 10.025 5.585V14.09ZM10.025 23.135C10.025 24.755 10.07 26.045 10.16 27.005C10.28 27.935 10.52 28.64 10.88 29.12C11.24 29.57 11.75 29.855 12.41 29.975C13.1 30.095 14.015 30.155 15.155 30.155C16.955 30.155 18.245 29.66 19.025 28.67C19.835 27.68 20.24 26.18 20.24 24.17C20.24 22.73 20.03 21.56 19.61 20.66C19.19 19.73 18.62 19.01 17.9 18.5C17.21 17.99 16.385 17.645 15.425 17.465C14.465 17.255 13.445 17.15 12.365 17.15H11.51C10.91 17.15 10.505 17.345 10.295 17.735C10.115 18.125 10.025 18.605 10.025 19.175V23.135ZM5.12 9.32C5.12 8.66 5.09 8.015 5.03 7.385C5 6.755 4.91 6.17 4.76 5.63C4.61 5.09 4.37 4.625 4.04 4.235C3.74 3.845 3.32 3.575 2.78 3.425C2.45 3.335 2.105 3.26 1.745 3.2C1.385 3.14 1.04 3.095 0.71 3.065C0.53 3.065 0.395 2.99 0.305 2.84C0.215 2.69 0.17 2.525 0.17 2.345C0.17 2.165 0.215 2 0.305 1.85C0.395 1.7 0.53 1.625 0.71 1.625C1.73 1.625 2.645 1.655 3.455 1.715C4.265 1.775 5.21 1.805 6.29 1.805C6.74 1.805 7.235 1.805 7.775 1.805C8.345 1.775 8.915 1.745 9.485 1.715C10.085 1.685 10.655 1.67 11.195 1.67C11.765 1.64 12.275 1.625 12.725 1.625C13.895 1.625 15.125 1.73 16.415 1.94C17.705 2.12 18.89 2.48 19.97 3.02C21.08 3.56 21.98 4.31 22.67 5.27C23.39 6.2 23.75 7.415 23.75 8.915C23.75 9.845 23.6 10.655 23.3 11.345C23.03 12.035 22.655 12.635 22.175 13.145C21.695 13.655 21.125 14.105 20.465 14.495C19.805 14.855 19.115 15.17 18.395 15.44C18.155 15.53 18.05 15.65 18.08 15.8C18.11 15.95 18.215 16.055 18.395 16.115C19.565 16.475 20.6 16.895 21.5 17.375C22.43 17.825 23.21 18.365 23.84 18.995C24.47 19.625 24.95 20.375 25.28 21.245C25.61 22.085 25.775 23.09 25.775 24.26C25.775 25.82 25.49 27.11 24.92 28.13C24.38 29.15 23.645 29.96 22.715 30.56C21.785 31.13 20.72 31.535 19.52 31.775C18.35 32.015 17.135 32.135 15.875 32.135C15.305 32.135 14.66 32.12 13.94 32.09C13.25 32.06 12.53 32.03 11.78 32C11.03 32 10.265 31.985 9.485 31.955C8.735 31.925 8.03 31.91 7.37 31.91C6.74 31.91 6.17 31.925 5.66 31.955C5.15 31.955 4.655 31.97 4.175 32C3.725 32.03 3.245 32.06 2.735 32.09C2.255 32.15 1.7 32.21 1.07 32.27C0.86 32.3 0.695 32.24 0.575 32.09C0.455 31.94 0.38 31.775 0.35 31.595C0.35 31.415 0.395 31.235 0.485 31.055C0.605 30.875 0.785 30.77 1.025 30.74C1.745 30.65 2.36 30.53 2.87 30.38C3.41 30.23 3.845 30.005 4.175 29.705C4.505 29.375 4.745 28.97 4.895 28.49C5.045 28.01 5.12 27.38 5.12 26.6V9.32ZM49.0495 21.11C49.0495 22.94 48.7945 24.56 48.2845 25.97C47.7745 27.38 47.0395 28.565 46.0795 29.525C45.1495 30.485 44.0245 31.22 42.7045 31.73C41.3845 32.21 39.9145 32.45 38.2945 32.45C36.8845 32.45 35.5795 32.225 34.3795 31.775C33.1795 31.295 32.1445 30.605 31.2745 29.705C30.4045 28.775 29.7145 27.62 29.2045 26.24C28.6945 24.83 28.4395 23.18 28.4395 21.29C28.4395 19.76 28.6945 18.365 29.2045 17.105C29.7145 15.815 30.4195 14.72 31.3195 13.82C32.2495 12.92 33.3595 12.215 34.6495 11.705C35.9395 11.195 37.3495 10.94 38.8795 10.94C40.3495 10.94 41.6995 11.165 42.9295 11.615C44.1895 12.065 45.2695 12.725 46.1695 13.595C47.0695 14.435 47.7745 15.485 48.2845 16.745C48.7945 18.005 49.0495 19.46 49.0495 21.11ZM44.3245 21.605C44.3245 20.465 44.2495 19.355 44.0995 18.275C43.9495 17.195 43.6795 16.235 43.2895 15.395C42.8995 14.555 42.3595 13.88 41.6695 13.37C40.9795 12.86 40.0945 12.605 39.0145 12.605C37.8145 12.605 36.8395 12.86 36.0895 13.37C35.3395 13.88 34.7395 14.57 34.2895 15.44C33.8695 16.28 33.5695 17.24 33.3895 18.32C33.2395 19.4 33.1645 20.525 33.1645 21.695C33.1645 22.715 33.2395 23.765 33.3895 24.845C33.5395 25.925 33.8245 26.9 34.2445 27.77C34.6645 28.64 35.2345 29.36 35.9545 29.93C36.7045 30.5 37.6495 30.785 38.7895 30.785C39.9595 30.785 40.9045 30.515 41.6245 29.975C42.3445 29.435 42.8995 28.73 43.2895 27.86C43.7095 26.99 43.9795 26.015 44.0995 24.935C44.2495 23.825 44.3245 22.715 44.3245 21.605ZM73.0876 21.11C73.0876 22.94 72.8326 24.56 72.3226 25.97C71.8126 27.38 71.0776 28.565 70.1176 29.525C69.1876 30.485 68.0626 31.22 66.7426 31.73C65.4226 32.21 63.9526 32.45 62.3326 32.45C60.9226 32.45 59.6176 32.225 58.4176 31.775C57.2176 31.295 56.1826 30.605 55.3126 29.705C54.4426 28.775 53.7526 27.62 53.2426 26.24C52.7326 24.83 52.4776 23.18 52.4776 21.29C52.4776 19.76 52.7326 18.365 53.2426 17.105C53.7526 15.815 54.4576 14.72 55.3576 13.82C56.2876 12.92 57.3976 12.215 58.6876 11.705C59.9776 11.195 61.3876 10.94 62.9176 10.94C64.3876 10.94 65.7376 11.165 66.9676 11.615C68.2276 12.065 69.3076 12.725 70.2076 13.595C71.1076 14.435 71.8126 15.485 72.3226 16.745C72.8326 18.005 73.0876 19.46 73.0876 21.11ZM68.3626 21.605C68.3626 20.465 68.2876 19.355 68.1376 18.275C67.9876 17.195 67.7176 16.235 67.3276 15.395C66.9376 14.555 66.3976 13.88 65.7076 13.37C65.0176 12.86 64.1326 12.605 63.0526 12.605C61.8526 12.605 60.8776 12.86 60.1276 13.37C59.3776 13.88 58.7776 14.57 58.3276 15.44C57.9076 16.28 57.6076 17.24 57.4276 18.32C57.2776 19.4 57.2026 20.525 57.2026 21.695C57.2026 22.715 57.2776 23.765 57.4276 24.845C57.5776 25.925 57.8626 26.9 58.2826 27.77C58.7026 28.64 59.2726 29.36 59.9926 29.93C60.7426 30.5 61.6876 30.785 62.8276 30.785C63.9976 30.785 64.9426 30.515 65.6626 29.975C66.3826 29.435 66.9376 28.73 67.3276 27.86C67.7476 26.99 68.0176 26.015 68.1376 24.935C68.2876 23.825 68.3626 22.715 68.3626 21.605ZM99.1507 32.225C98.6707 32.195 98.1757 32.165 97.6657 32.135C97.1857 32.105 96.6757 32.09 96.1357 32.09C95.5357 32.09 94.9357 32.105 94.3357 32.135C93.7657 32.195 93.2257 32.225 92.7157 32.225C92.5057 32.225 92.3557 32.15 92.2657 32C92.1757 31.85 92.1157 31.715 92.0857 31.595C91.8457 30.335 91.4407 29.165 90.8707 28.085C90.3307 26.975 89.7007 26 88.9807 25.16C88.2607 24.32 87.4807 23.66 86.6407 23.18C85.8307 22.7 85.0207 22.46 84.2107 22.46V25.97C84.2107 26.84 84.2257 27.56 84.2557 28.13C84.2857 28.7 84.3757 29.165 84.5257 29.525C84.7057 29.885 84.9757 30.17 85.3357 30.38C85.6957 30.59 86.2207 30.755 86.9107 30.875C87.0907 30.905 87.2257 30.995 87.3157 31.145C87.4057 31.295 87.4507 31.445 87.4507 31.595C87.4507 31.745 87.4057 31.88 87.3157 32C87.2257 32.15 87.0907 32.225 86.9107 32.225C86.0707 32.225 85.3057 32.165 84.6157 32.045C83.9257 31.955 83.1307 31.91 82.2307 31.91C81.2707 31.91 80.3257 31.955 79.3957 32.045C78.4657 32.165 77.5207 32.225 76.5607 32.225C76.4107 32.225 76.2907 32.15 76.2007 32C76.1107 31.88 76.0657 31.745 76.0657 31.595C76.0657 31.415 76.1107 31.265 76.2007 31.145C76.2907 30.995 76.4257 30.905 76.6057 30.875C77.4457 30.785 78.0907 30.65 78.5407 30.47C79.0207 30.29 79.3657 30.05 79.5757 29.75C79.7857 29.42 79.9057 29.03 79.9357 28.58C79.9657 28.1 79.9807 27.515 79.9807 26.825V9.14C79.9807 7.85 79.9507 6.83 79.8907 6.08C79.8307 5.3 79.6657 4.7 79.3957 4.28C79.1257 3.86 78.7207 3.575 78.1807 3.425C77.6407 3.275 76.8907 3.155 75.9307 3.065C75.7807 3.065 75.6607 2.99 75.5707 2.84C75.5107 2.69 75.4657 2.54 75.4357 2.39C75.4357 2.24 75.4657 2.09 75.5257 1.94C75.6157 1.79 75.7507 1.715 75.9307 1.715C77.0107 1.655 78.1957 1.565 79.4857 1.445C80.8057 1.325 82.0207 1.1 83.1307 0.77C83.5507 0.649999 83.8207 0.679999 83.9407 0.859999C84.0907 1.01 84.1807 1.175 84.2107 1.355V20.525C84.7807 20.165 85.3207 19.76 85.8307 19.31C86.3407 18.86 86.8057 18.395 87.2257 17.915C87.6457 17.435 88.0357 16.97 88.3957 16.52C88.7557 16.07 89.0707 15.68 89.3407 15.35C89.9407 14.57 90.1957 14.015 90.1057 13.685C90.0457 13.325 89.5357 13.115 88.5757 13.055C88.4257 13.055 88.3057 12.98 88.2157 12.83C88.1257 12.68 88.0807 12.53 88.0807 12.38C88.0807 12.2 88.1257 12.05 88.2157 11.93C88.3057 11.78 88.4257 11.705 88.5757 11.705C89.0557 11.705 89.4607 11.72 89.7907 11.75C90.1507 11.78 90.4657 11.825 90.7357 11.885C91.0357 11.915 91.3207 11.945 91.5907 11.975C91.8607 12.005 92.1757 12.02 92.5357 12.02C93.2257 12.02 93.9307 11.975 94.6507 11.885C95.3707 11.765 96.0757 11.705 96.7657 11.705C96.8857 11.705 96.9907 11.78 97.0807 11.93C97.1707 12.05 97.2157 12.2 97.2157 12.38C97.2157 12.53 97.1707 12.68 97.0807 12.83C97.0207 12.95 96.9157 13.025 96.7657 13.055C96.1657 13.115 95.6707 13.205 95.2807 13.325C94.8907 13.445 94.5307 13.61 94.2007 13.82C93.8707 14.03 93.5557 14.285 93.2557 14.585C92.9557 14.855 92.5957 15.185 92.1757 15.575C91.9057 15.815 91.5457 16.145 91.0957 16.565C90.6457 16.985 90.1507 17.435 89.6107 17.915C89.1007 18.365 88.5907 18.8 88.0807 19.22C87.6007 19.64 87.1807 19.985 86.8207 20.255C86.7007 20.345 86.6557 20.435 86.6857 20.525C86.7157 20.615 86.7757 20.66 86.8657 20.66C88.0657 20.72 89.0557 20.93 89.8357 21.29C90.6457 21.62 91.3207 22.055 91.8607 22.595C92.4007 23.105 92.8507 23.69 93.2107 24.35C93.6007 25.01 93.9757 25.7 94.3357 26.42C94.7257 27.11 95.1457 27.8 95.5957 28.49C96.0757 29.15 96.6757 29.765 97.3957 30.335C97.6057 30.485 97.8607 30.605 98.1607 30.695C98.4907 30.785 98.8207 30.845 99.1507 30.875C99.3307 30.875 99.4657 30.95 99.5557 31.1C99.6457 31.25 99.6907 31.415 99.6907 31.595C99.6907 31.745 99.6457 31.88 99.5557 32C99.4657 32.15 99.3307 32.225 99.1507 32.225Z" fill="black"/>
<path d="M105.219 7.25C105.219 6.35 105.144 5.645 104.994 5.135C104.874 4.625 104.649 4.235 104.319 3.965C104.019 3.665 103.614 3.47 103.104 3.38C102.594 3.26 101.949 3.17 101.169 3.11C100.989 3.11 100.839 3.035 100.719 2.885C100.629 2.705 100.584 2.525 100.584 2.345C100.584 2.165 100.629 2 100.719 1.85C100.839 1.7 100.989 1.625 101.169 1.625C101.439 1.625 101.844 1.625 102.384 1.625C102.954 1.625 103.584 1.64 104.274 1.67C104.964 1.67 105.669 1.685 106.389 1.715C107.139 1.715 107.814 1.745 108.414 1.805C109.014 1.835 109.509 1.895 109.899 1.985C110.319 2.045 110.559 2.135 110.619 2.255L119.754 23.72C119.814 23.81 119.874 23.855 119.934 23.855C120.024 23.855 120.099 23.81 120.159 23.72L129.159 2.255C129.189 2.135 129.564 2.045 130.284 1.985C131.034 1.895 131.889 1.835 132.849 1.805C133.839 1.745 134.829 1.7 135.819 1.67C136.839 1.64 137.649 1.625 138.249 1.625C138.429 1.625 138.549 1.7 138.609 1.85C138.699 2 138.744 2.165 138.744 2.345C138.744 2.525 138.699 2.69 138.609 2.84C138.519 2.99 138.399 3.08 138.249 3.11C137.229 3.29 136.434 3.455 135.864 3.605C135.294 3.755 134.874 4.04 134.604 4.46C134.334 4.85 134.169 5.435 134.109 6.215C134.049 6.995 134.019 8.105 134.019 9.545V26.15C134.019 27.14 134.079 27.92 134.199 28.49C134.319 29.03 134.529 29.45 134.829 29.75C135.159 30.05 135.609 30.275 136.179 30.425C136.749 30.545 137.484 30.65 138.384 30.74C138.564 30.77 138.699 30.875 138.789 31.055C138.909 31.205 138.969 31.37 138.969 31.55C138.969 31.73 138.909 31.895 138.789 32.045C138.699 32.195 138.549 32.27 138.339 32.27C137.139 32.27 135.984 32.21 134.874 32.09C133.794 31.97 132.714 31.91 131.634 31.91C130.494 31.91 129.309 31.97 128.079 32.09C126.879 32.21 125.784 32.27 124.794 32.27C124.614 32.27 124.479 32.195 124.389 32.045C124.299 31.895 124.254 31.73 124.254 31.55C124.254 31.37 124.299 31.205 124.389 31.055C124.479 30.875 124.614 30.77 124.794 30.74C125.724 30.65 126.459 30.545 126.999 30.425C127.569 30.275 128.004 30.05 128.304 29.75C128.634 29.45 128.844 29.03 128.934 28.49C129.054 27.92 129.114 27.14 129.114 26.15V9.455C129.114 9.245 128.994 9.155 128.754 9.185C128.514 9.185 128.364 9.275 128.304 9.455L121.824 24.71C121.374 25.76 120.924 26.915 120.474 28.175C120.054 29.405 119.634 30.65 119.214 31.91C119.184 32 119.094 32.06 118.944 32.09C118.824 32.15 118.689 32.18 118.539 32.18C118.389 32.18 118.239 32.15 118.089 32.09C117.969 32.06 117.894 32 117.864 31.91L107.964 9.23C107.904 9.08 107.769 8.99 107.559 8.96C107.379 8.93 107.289 9.035 107.289 9.275V26.015C107.289 27.095 107.379 27.935 107.559 28.535C107.739 29.135 107.994 29.585 108.324 29.885C108.684 30.185 109.119 30.395 109.629 30.515C110.139 30.605 110.739 30.695 111.429 30.785C111.579 30.815 111.684 30.905 111.744 31.055C111.834 31.205 111.879 31.37 111.879 31.55C111.879 31.73 111.834 31.895 111.744 32.045C111.684 32.195 111.564 32.27 111.384 32.27C110.724 32.27 109.989 32.21 109.179 32.09C108.399 31.97 107.469 31.91 106.389 31.91C105.249 31.91 104.229 31.97 103.329 32.09C102.459 32.21 101.724 32.27 101.124 32.27C100.974 32.27 100.854 32.195 100.764 32.045C100.674 31.895 100.614 31.73 100.584 31.55C100.584 31.37 100.629 31.205 100.719 31.055C100.809 30.905 100.944 30.815 101.124 30.785C101.904 30.695 102.549 30.605 103.059 30.515C103.599 30.395 104.019 30.185 104.319 29.885C104.649 29.585 104.874 29.135 104.994 28.535C105.144 27.935 105.219 27.095 105.219 26.015V7.25ZM152.774 22.685C152.774 22.355 152.759 22.16 152.729 22.1C152.699 22.01 152.624 21.965 152.504 21.965C150.044 22.175 148.214 22.7 147.014 23.54C145.844 24.35 145.259 25.4 145.259 26.69C145.259 27.59 145.484 28.355 145.934 28.985C146.384 29.585 147.134 29.885 148.184 29.885C148.874 29.885 149.594 29.75 150.344 29.48C151.124 29.21 151.814 28.82 152.414 28.31C152.654 28.07 152.774 27.83 152.774 27.59V22.685ZM157.004 27.14C157.004 28.19 157.094 28.925 157.274 29.345C157.484 29.765 157.874 29.975 158.444 29.975C158.774 29.975 159.044 29.945 159.254 29.885C159.464 29.795 159.764 29.63 160.154 29.39C160.244 29.33 160.334 29.33 160.424 29.39C160.544 29.45 160.634 29.54 160.694 29.66C160.784 29.75 160.844 29.87 160.874 30.02C160.904 30.14 160.874 30.245 160.784 30.335C159.614 31.745 158.234 32.45 156.644 32.45C155.774 32.45 155.024 32.225 154.394 31.775C153.794 31.295 153.344 30.74 153.044 30.11C152.984 29.96 152.894 29.945 152.774 30.065C151.994 30.755 151.079 31.325 150.029 31.775C149.009 32.225 147.719 32.45 146.159 32.45C144.449 32.45 143.129 32 142.199 31.1C141.269 30.17 140.804 28.865 140.804 27.185C140.804 25.025 141.809 23.375 143.819 22.235C145.829 21.065 148.754 20.48 152.594 20.48C152.654 20.48 152.699 20.405 152.729 20.255C152.759 20.105 152.774 19.76 152.774 19.22V18.005C152.774 17.255 152.714 16.55 152.594 15.89C152.474 15.23 152.264 14.66 151.964 14.18C151.694 13.67 151.304 13.28 150.794 13.01C150.284 12.71 149.654 12.56 148.904 12.56C147.794 12.56 146.894 12.785 146.204 13.235C145.514 13.655 145.169 14.21 145.169 14.9C145.169 15.23 145.274 15.56 145.484 15.89C145.694 16.19 145.799 16.505 145.799 16.835C145.799 17.255 145.589 17.66 145.169 18.05C144.749 18.44 144.239 18.635 143.639 18.635C142.829 18.635 142.244 18.425 141.884 18.005C141.554 17.555 141.389 17.015 141.389 16.385C141.389 15.635 141.599 14.93 142.019 14.27C142.439 13.58 143.009 12.995 143.729 12.515C144.449 12.035 145.289 11.66 146.249 11.39C147.209 11.09 148.214 10.94 149.264 10.94C151.664 10.94 153.554 11.495 154.934 12.605C156.314 13.715 157.004 15.56 157.004 18.14V27.14ZM168.894 25.07C168.894 26.75 169.074 27.995 169.434 28.805C169.824 29.615 170.514 30.02 171.504 30.02C172.194 30.02 172.839 29.915 173.439 29.705C174.069 29.495 174.549 29.27 174.879 29.03C174.969 28.97 175.074 28.97 175.194 29.03C175.314 29.06 175.419 29.135 175.509 29.255C175.599 29.345 175.659 29.45 175.689 29.57C175.749 29.69 175.749 29.795 175.689 29.885C175.119 30.815 174.369 31.475 173.439 31.865C172.539 32.255 171.474 32.45 170.244 32.45C168.204 32.45 166.764 32 165.924 31.1C165.084 30.17 164.664 28.73 164.664 26.78V15.215C164.664 14.855 164.649 14.57 164.619 14.36C164.589 14.15 164.499 14 164.349 13.91C164.199 13.82 163.944 13.775 163.584 13.775C163.254 13.745 162.774 13.73 162.144 13.73C162.054 13.73 161.979 13.64 161.919 13.46C161.859 13.28 161.814 13.085 161.784 12.875C161.784 12.665 161.814 12.47 161.874 12.29C161.934 12.11 162.024 12.02 162.144 12.02C162.894 11.96 163.539 11.855 164.079 11.705C164.619 11.525 165.069 11.255 165.429 10.895C165.819 10.535 166.119 10.055 166.329 9.455C166.569 8.825 166.764 8.015 166.914 7.025C166.944 6.845 167.064 6.71 167.274 6.62C167.484 6.53 167.709 6.485 167.949 6.485C168.189 6.485 168.399 6.53 168.579 6.62C168.789 6.68 168.894 6.77 168.894 6.89V10.76C168.894 11.24 168.909 11.525 168.939 11.615C168.999 11.675 169.194 11.705 169.524 11.705H174.204C174.414 11.705 174.549 11.825 174.609 12.065C174.669 12.305 174.699 12.515 174.699 12.695C174.699 12.875 174.654 13.1 174.564 13.37C174.504 13.61 174.354 13.73 174.114 13.73H169.299C169.089 13.73 168.969 13.79 168.939 13.91C168.909 14 168.894 14.375 168.894 15.035V25.07ZM182.849 20.525C182.699 20.525 182.609 20.585 182.579 20.705C182.579 20.795 182.579 20.915 182.579 21.065C182.579 22.625 182.744 23.945 183.074 25.025C183.434 26.105 183.914 26.99 184.514 27.68C185.144 28.34 185.879 28.82 186.719 29.12C187.589 29.42 188.519 29.57 189.509 29.57C190.529 29.57 191.519 29.495 192.479 29.345C193.439 29.165 194.264 28.79 194.954 28.22C195.104 28.1 195.254 28.055 195.404 28.085C195.584 28.115 195.719 28.19 195.809 28.31C195.929 28.43 196.004 28.565 196.034 28.715C196.064 28.865 196.034 29 195.944 29.12C194.984 30.38 193.904 31.25 192.704 31.73C191.504 32.21 190.019 32.45 188.249 32.45C186.449 32.45 184.889 32.18 183.569 31.64C182.279 31.1 181.199 30.35 180.329 29.39C179.489 28.4 178.859 27.26 178.439 25.97C178.049 24.65 177.854 23.225 177.854 21.695C177.854 20.225 178.094 18.83 178.574 17.51C179.084 16.19 179.789 15.05 180.689 14.09C181.589 13.13 182.654 12.365 183.884 11.795C185.114 11.225 186.479 10.94 187.979 10.94C189.239 10.94 190.379 11.165 191.399 11.615C192.449 12.035 193.334 12.635 194.054 13.415C194.774 14.165 195.329 15.08 195.719 16.16C196.139 17.21 196.349 18.35 196.349 19.58C196.349 20.21 196.124 20.525 195.674 20.525H182.849ZM191.084 18.95C191.504 18.95 191.744 18.8 191.804 18.5C191.864 18.2 191.894 17.84 191.894 17.42C191.894 16.79 191.789 16.19 191.579 15.62C191.399 15.02 191.129 14.495 190.769 14.045C190.409 13.595 189.974 13.235 189.464 12.965C188.954 12.695 188.369 12.56 187.709 12.56C186.899 12.56 186.194 12.71 185.594 13.01C185.024 13.28 184.529 13.655 184.109 14.135C183.719 14.585 183.419 15.125 183.209 15.755C182.999 16.385 182.849 17.045 182.759 17.735C182.699 18.095 182.669 18.395 182.669 18.635C182.699 18.845 182.774 18.95 182.894 18.95H191.084ZM213.642 11.615C213.552 11.945 213.462 12.35 213.372 12.83C213.312 13.31 213.282 13.82 213.282 14.36C213.282 14.93 213.297 15.53 213.327 16.16C213.357 16.76 213.372 17.225 213.372 17.555C213.372 17.645 213.312 17.72 213.192 17.78C213.072 17.84 212.937 17.885 212.787 17.915C212.637 17.915 212.502 17.9 212.382 17.87C212.262 17.81 212.187 17.735 212.157 17.645C211.827 16.055 211.287 14.84 210.537 14C209.787 13.13 208.587 12.695 206.937 12.695C205.827 12.695 204.912 12.98 204.192 13.55C203.472 14.09 203.112 14.825 203.112 15.755C203.112 16.535 203.412 17.135 204.012 17.555C204.612 17.975 205.407 18.365 206.397 18.725C206.817 18.875 207.312 19.07 207.882 19.31C208.482 19.52 208.962 19.7 209.322 19.85C210.102 20.21 210.822 20.585 211.482 20.975C212.172 21.365 212.757 21.83 213.237 22.37C213.747 22.88 214.137 23.465 214.407 24.125C214.707 24.785 214.857 25.55 214.857 26.42C214.857 27.56 214.617 28.52 214.137 29.3C213.657 30.05 213.042 30.665 212.292 31.145C211.542 31.595 210.687 31.925 209.727 32.135C208.767 32.345 207.822 32.45 206.892 32.45C206.112 32.45 205.242 32.36 204.282 32.18C203.322 32 202.482 31.745 201.762 31.415C201.582 31.355 201.387 31.385 201.177 31.505C200.997 31.625 200.877 31.85 200.817 32.18C200.817 32.27 200.742 32.33 200.592 32.36C200.472 32.39 200.337 32.405 200.187 32.405C200.067 32.405 199.947 32.375 199.827 32.315C199.707 32.285 199.647 32.225 199.647 32.135C199.647 31.895 199.677 31.565 199.737 31.145C199.797 30.725 199.827 30.335 199.827 29.975C199.827 29.615 199.797 29.225 199.737 28.805C199.707 28.355 199.662 27.92 199.602 27.5C199.572 27.08 199.542 26.705 199.512 26.375C199.482 26.045 199.467 25.805 199.467 25.655C199.467 25.535 199.527 25.445 199.647 25.385C199.767 25.325 199.902 25.295 200.052 25.295C200.202 25.265 200.337 25.28 200.457 25.34C200.607 25.37 200.697 25.445 200.727 25.565C200.937 26.435 201.207 27.2 201.537 27.86C201.867 28.52 202.272 29.075 202.752 29.525C203.262 29.975 203.862 30.32 204.552 30.56C205.272 30.77 206.127 30.875 207.117 30.875C208.197 30.875 209.067 30.575 209.727 29.975C210.417 29.375 210.762 28.535 210.762 27.455C210.762 26.495 210.417 25.745 209.727 25.205C209.067 24.635 208.287 24.14 207.387 23.72C206.967 23.54 206.532 23.36 206.082 23.18C205.662 23 205.227 22.82 204.777 22.64C204.117 22.37 203.457 22.1 202.797 21.83C202.167 21.53 201.597 21.17 201.087 20.75C200.607 20.33 200.217 19.805 199.917 19.175C199.617 18.545 199.467 17.765 199.467 16.835C199.467 15.755 199.692 14.84 200.142 14.09C200.622 13.34 201.222 12.74 201.942 12.29C202.692 11.81 203.517 11.465 204.417 11.255C205.317 11.045 206.202 10.94 207.072 10.94C207.912 10.94 208.647 11.045 209.277 11.255C209.937 11.435 210.657 11.78 211.437 12.29C211.557 12.35 211.707 12.35 211.887 12.29C212.097 12.2 212.262 11.945 212.382 11.525C212.412 11.405 212.502 11.33 212.652 11.3C212.802 11.27 212.952 11.27 213.102 11.3C213.252 11.3 213.387 11.33 213.507 11.39C213.627 11.45 213.672 11.525 213.642 11.615Z" fill="#006F7E"/>
</svg>
