<svg width="40" height="40" viewBox="0 0 40 40" fill="none" xmlns="http://www.w3.org/2000/svg">
<path d="M11.113 12.7282C10.9349 14.6282 10.8099 17.9907 11.9317 19.422C11.9317 19.422 11.4036 15.7282 16.138 11.0938C18.0442 9.22821 18.4849 6.69072 17.8192 4.78759C17.4411 3.70947 16.7505 2.81884 16.1505 2.19697C15.8005 1.83134 16.0692 1.22822 16.5786 1.25009C19.6599 1.38759 24.6536 2.24384 26.7755 7.56884C27.7067 9.90634 27.7755 12.322 27.3317 14.7782C27.0505 16.347 26.0505 19.8345 28.3317 20.2626C29.9599 20.5688 30.7474 19.2751 31.1005 18.3438C31.2474 17.9563 31.7567 17.8595 32.0317 18.1688C34.7817 21.297 35.0161 24.9813 34.4474 28.1532C33.3474 34.2845 27.138 38.747 20.9692 38.747C13.263 38.747 7.12861 34.3376 5.53798 26.3563C4.89736 23.1345 5.22236 16.7595 10.1911 12.2595C10.5599 11.922 11.163 12.222 11.113 12.7282Z" fill="url(#paint0_radial_4299_7331)"/>
<path d="M23.7846 24.1938C20.944 20.5376 22.2158 16.3657 22.9127 14.7032C23.0065 14.4845 22.7565 14.2782 22.5596 14.4126C21.3377 15.2438 18.8346 17.2001 17.669 19.9532C16.0908 23.6751 16.2033 25.497 17.1377 27.722C17.7002 29.0626 17.0471 29.347 16.719 29.397C16.4002 29.447 16.1065 29.2345 15.8721 29.0126C15.198 28.3652 14.7175 27.5428 14.4846 26.6376C14.4346 26.4438 14.1815 26.3907 14.0658 26.5501C13.1908 27.7595 12.7377 29.7001 12.7158 31.072C12.6471 35.3126 16.1502 38.7501 20.3877 38.7501C25.7283 38.7501 29.619 32.8438 26.5502 27.9063C25.6596 26.4688 24.8221 25.5282 23.7846 24.1938Z" fill="url(#paint1_radial_4299_7331)"/>
<defs>
<radialGradient id="paint0_radial_4299_7331" cx="0" cy="0" r="1" gradientUnits="userSpaceOnUse" gradientTransform="translate(19.4429 38.8441) rotate(-179.751) scale(22.0586 36.1938)">
<stop offset="0.314" stop-color="#FF9800"/>
<stop offset="0.662" stop-color="#FF6D00"/>
<stop offset="0.972" stop-color="#F44336"/>
</radialGradient>
<radialGradient id="paint1_radial_4299_7331" cx="0" cy="0" r="1" gradientUnits="userSpaceOnUse" gradientTransform="translate(20.6814 16.8933) rotate(90.5787) scale(23.0801 17.3695)">
<stop offset="0.214" stop-color="#FFF176"/>
<stop offset="0.328" stop-color="#FFF27D"/>
<stop offset="0.487" stop-color="#FFF48F"/>
<stop offset="0.672" stop-color="#FFF7AD"/>
<stop offset="0.793" stop-color="#FFF9C4"/>
<stop offset="0.822" stop-color="#FFF8BD" stop-opacity="0.804"/>
<stop offset="0.863" stop-color="#FFF6AB" stop-opacity="0.529"/>
<stop offset="0.91" stop-color="#FFF38D" stop-opacity="0.209"/>
<stop offset="0.941" stop-color="#FFF176" stop-opacity="0"/>
</radialGradient>
</defs>
</svg>
