<svg width="160" height="48" viewBox="0 0 160 48" fill="none" xmlns="http://www.w3.org/2000/svg">
<g clip-path="url(#clip0_657_590)">
<path d="M160 41.1857C160 44.701 156.834 47.5518 152.929 47.5518H7.07281C3.16728 47.5521 0 44.7013 0 41.1857V6.81328C0 3.2983 3.16728 0.447754 7.07281 0.447754H152.928C156.834 0.447754 160 3.2983 160 6.81328V41.1857H160Z" fill="#252525"/>
<mask id="mask0_657_590" style="mask-type:luminance" maskUnits="userSpaceOnUse" x="12" y="10" width="31" height="32">
<path d="M34.6738 21.1819L27.4592 17.4333C27.4592 17.4333 14.3159 10.6029 13.5432 10.2015C12.7706 9.79999 12.0007 10.0432 12.0007 10.8822V40.3452C12.0007 40.9742 12.551 41.2453 13.2223 40.8968C13.8933 40.5477 27.4592 33.4983 27.4592 33.4983L34.6734 29.7499C34.6734 29.7499 40.7947 26.5694 41.6083 26.1468C42.4219 25.7237 42.3437 25.1437 41.6571 24.8109C40.9708 24.4779 34.6738 21.1819 34.6738 21.1819Z" fill="white"/>
</mask>
<g mask="url(#mask0_657_590)">
<path d="M12.0007 9.51636V41.4152L29.8733 25.4659L12.0007 9.51636Z" fill="url(#paint0_linear_657_590)"/>
</g>
<mask id="mask1_657_590" style="mask-type:luminance" maskUnits="userSpaceOnUse" x="12" y="10" width="31" height="32">
<path d="M34.6738 21.1819L27.4592 17.4333C27.4592 17.4333 14.3159 10.6029 13.5432 10.2015C12.7706 9.79999 12.0007 10.0432 12.0007 10.8822V40.3452C12.0007 40.9742 12.551 41.2453 13.2223 40.8968C13.8933 40.5477 27.4592 33.4983 27.4592 33.4983L34.6734 29.7499C34.6734 29.7499 40.7947 26.5694 41.6083 26.1468C42.4219 25.7237 42.3437 25.1437 41.6571 24.8109C40.9708 24.4779 34.6738 21.1819 34.6738 21.1819Z" fill="white"/>
</mask>
<g mask="url(#mask1_657_590)">
<path d="M34.6734 21.1818L27.4589 17.4332L12.0007 9.40039V9.51638L29.8733 25.466L34.6734 21.1818Z" fill="url(#paint1_linear_657_590)"/>
</g>
<mask id="mask2_657_590" style="mask-type:luminance" maskUnits="userSpaceOnUse" x="12" y="10" width="31" height="32">
<path d="M34.6738 21.1819L27.4592 17.4333C27.4592 17.4333 14.3159 10.6029 13.5432 10.2015C12.7706 9.79999 12.0007 10.0432 12.0007 10.8822V40.3452C12.0007 40.9742 12.551 41.2453 13.2223 40.8968C13.8933 40.5477 27.4592 33.4983 27.4592 33.4983L34.6734 29.7499C34.6734 29.7499 40.7947 26.5694 41.6083 26.1468C42.4219 25.7237 42.3437 25.1437 41.6571 24.8109C40.9708 24.4779 34.6738 21.1819 34.6738 21.1819Z" fill="white"/>
</mask>
<g mask="url(#mask2_657_590)">
<path d="M12.0007 41.4154V41.5313L27.4589 33.4983L34.6731 29.7496L29.8733 25.4661L12.0007 41.4154Z" fill="url(#paint2_linear_657_590)"/>
</g>
<mask id="mask3_657_590" style="mask-type:luminance" maskUnits="userSpaceOnUse" x="12" y="10" width="31" height="32">
<path d="M34.6738 21.1819L27.4592 17.4333C27.4592 17.4333 14.3159 10.6029 13.5432 10.2015C12.7706 9.79999 12.0007 10.0432 12.0007 10.8822V40.3452C12.0007 40.9742 12.551 41.2453 13.2223 40.8968C13.8933 40.5477 27.4592 33.4983 27.4592 33.4983L34.6734 29.7499C34.6734 29.7499 40.7947 26.5694 41.6083 26.1468C42.4219 25.7237 42.3437 25.1437 41.6571 24.8109C40.9708 24.4779 34.6738 21.1819 34.6738 21.1819Z" fill="white"/>
</mask>
<g mask="url(#mask3_657_590)">
<path d="M34.6737 21.1819L29.8735 25.466L34.6734 29.7496L42.9183 25.4657L34.6737 21.1819Z" fill="url(#paint3_linear_657_590)"/>
</g>
<path d="M124.519 31.7014C123.848 31.7014 123.236 31.5899 122.681 31.3672C122.126 31.1442 121.66 30.8013 121.284 30.3391H121.171C121.246 30.8807 121.284 31.3943 121.284 31.8793V35.6967H119.724V22.2553H120.993L121.209 23.525H121.284C121.686 23.0169 122.153 22.6506 122.686 22.4248C123.218 22.199 123.83 22.0861 124.519 22.0861C125.886 22.0861 126.941 22.5067 127.684 23.3474C128.427 24.1881 128.798 25.3677 128.798 26.8852C128.798 28.4088 128.42 29.5921 127.666 30.4365C126.91 31.2799 125.862 31.7014 124.519 31.7014ZM124.294 23.2795C123.24 23.2795 122.479 23.5422 122.008 24.0667C121.538 24.5915 121.297 25.4268 121.284 26.5724V26.8852C121.284 28.189 121.525 29.1214 122.008 29.6831C122.491 30.2448 123.266 30.5249 124.331 30.5249C125.222 30.5249 125.92 30.2008 126.424 29.5519C126.929 28.9032 127.181 28.0088 127.181 26.8683C127.181 25.712 126.929 24.824 126.424 24.2064C125.92 23.5881 125.209 23.2795 124.294 23.2795ZM132.413 31.5319H130.852V18.3617H132.413V31.5319ZM141.389 31.5319L141.078 30.2115H141.003C140.489 30.7932 139.977 31.187 139.465 31.3923C138.955 31.5986 138.316 31.7014 137.552 31.7014C136.53 31.7014 135.729 31.4644 135.149 30.9905C134.569 30.5167 134.279 29.8427 134.279 28.9677C134.279 27.0946 135.944 26.1126 139.273 26.022L141.023 25.971V25.3956C141.023 24.6675 140.848 24.1298 140.5 23.7832C140.153 23.4358 139.595 23.2624 138.831 23.2624C137.972 23.2624 137 23.4994 135.916 23.9732L135.436 22.8983C135.944 22.65 136.5 22.4555 137.106 22.3144C137.711 22.1734 138.317 22.1027 138.925 22.1027C140.154 22.1027 141.065 22.348 141.657 22.839C142.25 23.33 142.546 24.1171 142.546 25.2008V31.5317H141.389L141.389 31.5319ZM137.862 30.542C138.834 30.542 139.597 30.3021 140.152 29.8227C140.706 29.3432 140.985 28.6715 140.985 27.8078V26.9699L139.423 27.0288C138.181 27.069 137.287 27.2419 136.738 27.5502C136.189 27.8576 135.915 28.3359 135.915 28.9849C135.915 29.4925 136.085 29.8793 136.428 30.1439C136.77 30.4094 137.247 30.542 137.862 30.542ZM143.452 22.2553H145.126L147.383 27.5456C147.878 28.7534 148.186 29.6251 148.305 30.1614H148.38C148.462 29.8731 148.633 29.3812 148.893 28.6836C149.153 27.9865 150.004 25.8443 151.446 22.2553H153.121L148.69 32.8188C148.252 33.8628 147.739 34.6035 147.152 35.0415C146.566 35.4785 145.847 35.6967 144.995 35.6967C144.518 35.6967 144.048 35.6488 143.583 35.5531V34.4275C143.928 34.4951 144.314 34.5291 144.741 34.5291C145.813 34.5291 146.577 33.9875 147.035 32.9038L147.609 31.5837L143.452 22.2553ZM95.5997 23.1174C96.0952 23.4864 97.13 24.2618 97.13 25.7373C97.13 27.1723 96.2244 27.8528 95.3188 28.4922C95.0385 28.7441 94.715 29.0167 94.715 29.444C94.715 29.87 95.0382 30.1031 95.2762 30.278L96.0526 30.8202C97.0011 31.5384 97.8626 32.1986 97.8626 33.5378C97.8626 35.3616 95.9006 37.2043 92.1931 37.2043C89.0665 37.2043 87.5581 35.8659 87.5581 34.4292C87.5581 33.731 87.9444 32.7419 89.2182 32.062C90.554 31.3247 92.3661 31.2287 93.3358 31.169C93.033 30.8202 92.6889 30.4514 92.6889 29.8509C92.6889 29.5215 92.7972 29.3272 92.9045 29.0933C92.6664 29.113 92.4296 29.1324 92.2138 29.1324C89.9293 29.1324 88.6358 27.5994 88.6358 26.0867C88.6358 25.194 89.0891 24.2038 90.015 23.4867C91.2444 22.5749 92.7102 22.4192 93.8755 22.4192H98.3156L96.9357 23.1177H95.5997L95.5997 23.1174ZM94.0684 31.7329C93.8961 31.7127 93.7878 31.7127 93.5732 31.7127C93.3793 31.7127 92.2134 31.7524 91.3091 32.0246C90.8349 32.1786 89.4547 32.6443 89.4547 34.0227C89.4547 35.3997 90.9431 36.3907 93.2501 36.3907C95.3185 36.3907 96.4192 35.4962 96.4192 34.2943C96.4193 33.3028 95.7076 32.7811 94.0684 31.7329ZM94.694 28.0457C95.1892 27.5989 95.2318 26.9786 95.2318 26.629C95.2318 25.2323 94.3052 23.0591 92.5162 23.0591C91.955 23.0591 91.3519 23.3111 91.0069 23.6996C90.6409 24.107 90.532 24.6303 90.532 25.1354C90.532 26.4353 91.3729 28.5893 93.2279 28.5893C93.7669 28.5893 94.3478 28.3565 94.694 28.0457ZM82.0268 31.4224C78.6049 31.4224 76.7753 29.0201 76.7753 26.85C76.7753 24.3119 79.0779 22.1433 82.3509 22.1433C85.5135 22.1433 87.494 24.3702 87.494 26.7148C87.4943 28.9998 85.5363 31.4224 82.0268 31.4224ZM84.7171 29.8534C85.2345 29.2329 85.3637 28.4584 85.3637 27.7022C85.3637 25.9969 84.4596 22.743 81.7903 22.743C81.0803 22.743 80.3702 22.9952 79.8537 23.4029C79.0141 24.0799 78.8627 24.9327 78.8627 25.7667C78.8627 27.6831 79.9175 30.8399 82.5227 30.8399C83.3619 30.8399 84.2231 30.4725 84.7171 29.8534ZM70.3603 31.4224C66.9377 31.4224 65.1078 29.0201 65.1078 26.85C65.1078 24.3119 67.4113 22.1433 70.6834 22.1433C73.847 22.1433 75.8271 24.3702 75.8271 26.7148C75.8274 28.9998 73.8692 31.4224 70.3603 31.4224ZM73.0512 29.8534C73.5676 29.2329 73.6971 28.4584 73.6971 27.7022C73.6971 25.9969 72.7924 22.743 70.1232 22.743C69.4134 22.743 68.7027 22.9952 68.1865 23.4029C67.3469 24.0799 67.1964 24.9327 67.1964 25.7667C67.1964 27.6831 68.2506 30.8399 70.8561 30.8399C71.6957 30.8399 72.5563 30.4725 73.0512 29.8534ZM63.4636 31.1186L60.3686 31.7614C59.1129 31.937 57.988 32.0916 56.7984 32.0916C50.8248 32.0916 48.5535 28.1377 48.5535 25.0408C48.5535 21.2629 51.7774 17.7581 57.2964 17.7581C58.4654 17.7581 59.5897 17.9135 60.6066 18.1668C62.2295 18.5759 62.9869 19.0818 63.4633 19.3744L61.6665 20.9129L60.9095 21.0681L61.4503 20.2888C60.7149 19.6466 59.372 18.4588 56.8194 18.4588C53.4 18.4588 50.8242 20.797 50.8242 24.2049C50.8242 27.8655 53.7679 31.3129 58.4845 31.3129C59.8709 31.3129 60.5835 31.0601 61.2332 30.8258V27.6909L57.9662 27.8466L59.6967 27.0082H64.2848L63.7226 27.495C63.57 27.6124 63.549 27.6518 63.5059 27.8061C63.4833 27.9818 63.463 28.5471 63.463 28.7416V31.1186H63.4636V31.1186Z" fill="white"/>
<path d="M102.44 30.5578C101.725 30.4992 101.576 30.3829 101.576 29.6225V18.5993C101.58 18.5573 101.583 18.5142 101.587 18.4737C101.674 17.7924 101.891 17.6755 102.562 17.3245H99.4665L97.843 18.0258H99.4975V18.0345L99.4963 18.0275V30.0516C99.4963 30.4404 99.4109 30.4995 98.9125 31.0831H102.743L103.544 30.6558C103.177 30.6155 102.808 30.5966 102.44 30.5578ZM111.245 30.7368C111.01 30.8531 110.773 30.9891 110.538 31.0851C109.827 31.3751 109.097 31.4528 108.451 31.4528C107.765 31.4528 106.689 31.4128 105.592 30.698C104.068 29.7301 103.401 28.0668 103.401 26.6166C103.401 23.619 106.109 22.1491 108.323 22.1491C109.097 22.1491 109.893 22.3229 110.537 22.6911C111.611 23.3282 111.89 24.1599 112.04 24.605L106.991 26.4432L105.336 26.5591C105.872 29.0155 107.72 30.4457 109.763 30.4457C110.858 30.4457 111.654 30.0983 112.384 29.77L111.245 30.7368ZM109.226 24.9721C109.633 24.8372 109.848 24.7207 109.848 24.4501C109.848 23.677 108.882 22.7868 107.72 22.7868C106.86 22.7868 105.249 23.3868 105.249 25.4752C105.249 25.8041 105.292 26.152 105.314 26.5014L109.226 24.9721ZM113.32 22.2815V23.5577H113.147V22.2815H112.678V22.1491H113.789V22.2815H113.32ZM115.253 23.5577V22.2696H115.245L114.808 23.5577H114.674L114.233 22.2696H114.227V23.5577H114.071V22.1491H114.339L114.738 23.2877H114.743L115.136 22.1491H115.408V23.5577H115.253Z" fill="white"/>
<path d="M52.8518 13.9657H51.7763C51.7763 13.8326 51.6743 13.4556 51.4704 12.8345H49.9178C49.7073 13.4455 49.6019 13.8224 49.6019 13.9657H48.5906C48.5906 13.8872 48.8521 13.2419 49.3751 12.0302C49.8981 10.8184 50.1597 10.1509 50.1597 10.0282H51.43C51.43 10.143 51.6668 10.8007 52.1407 12.0015C52.6147 13.2022 52.8518 13.8568 52.8518 13.9657ZM51.2992 12.2568C50.9161 11.2165 50.7246 10.654 50.7246 10.5693H50.6708C50.6708 10.6478 50.4725 11.2103 50.0761 12.2568H51.2992ZM57.1849 13.9657H56.355C56.355 13.883 56.0469 13.4466 55.431 12.6563C54.7859 11.8235 54.4184 11.2543 54.3289 10.9477H54.2751C54.3311 11.3891 54.3593 11.7883 54.3593 12.1454C54.3593 12.6434 54.3749 13.2504 54.4062 13.966H53.5794C53.6129 13.341 53.6298 12.6546 53.6298 11.9066C53.6298 11.1707 53.6129 10.5445 53.5794 10.0285H54.5773C54.5773 10.1355 54.8538 10.562 55.4072 11.3078C55.9963 12.1 56.3347 12.6375 56.422 12.9199H56.4724C56.4186 12.4702 56.3917 12.0671 56.3917 11.7101C56.3917 11.1639 56.376 10.6031 56.3448 10.0285H57.185C57.1534 10.5285 57.138 11.1546 57.138 11.9066C57.1377 12.6642 57.1533 13.3506 57.1849 13.9657ZM62.0552 11.8607C62.0552 12.4333 61.8513 12.9334 61.4436 13.3607C61.0357 13.7884 60.4645 14.0018 59.7297 14.0018C59.3981 14.0018 58.9411 13.9897 58.3586 13.9655C58.3877 13.3565 58.4024 12.6698 58.4024 11.906C58.4024 11.1724 58.3877 10.5462 58.3586 10.0279H58.9467C59.0431 10.0279 59.1863 10.0248 59.3769 10.0189C59.567 10.013 59.6915 10.0099 59.7497 10.0099C60.5584 10.0099 61.1446 10.1915 61.509 10.5544C61.8731 10.9173 62.0552 11.3525 62.0552 11.8607ZM61.138 11.9907C61.138 11.6036 61.0125 11.2776 60.7617 11.0121C60.5108 10.7472 60.1276 10.6146 59.6124 10.6146C59.516 10.6146 59.384 10.6236 59.2157 10.6419C59.2379 11.0453 59.2492 11.4665 59.2492 11.906C59.2492 12.388 59.2604 12.8658 59.2826 13.3396C59.4264 13.3657 59.5727 13.3789 59.7193 13.379C60.2011 13.379 60.5577 13.2442 60.7895 12.975C61.0213 12.7059 61.138 12.3779 61.138 11.9907ZM66.5463 13.9657H65.5515C65.2916 13.252 65.0924 12.8114 64.9535 12.6442C64.8146 12.4767 64.5906 12.3931 64.2815 12.3931C64.1514 12.3931 64.0272 12.3942 63.9087 12.3962C63.9087 12.9145 63.9186 13.4376 63.939 13.9657H63.0049C63.034 13.3568 63.0487 12.6701 63.0487 11.9063C63.0487 11.1726 63.034 10.5465 63.0049 10.0282H63.5861C63.6534 10.0282 63.7939 10.0251 64.0078 10.0192C64.2218 10.0133 64.4195 10.0101 64.6009 10.0101C65.6292 10.0101 66.1434 10.3266 66.1434 10.9598C66.1434 11.4618 65.85 11.8114 65.2632 12.0093V12.0547C65.4893 12.111 65.6876 12.27 65.8578 12.5308C66.0277 12.7917 66.2573 13.2701 66.5463 13.9657ZM65.2863 11.1833C65.2863 10.7821 64.9994 10.5814 64.426 10.5814C64.2155 10.5814 64.0294 10.5955 63.8683 10.6236C63.893 10.9361 63.9052 11.3435 63.9052 11.8455C64.0285 11.8497 64.1326 11.8514 64.2177 11.8514C64.93 11.8517 65.2863 11.629 65.2863 11.1833ZM71.363 11.9243C71.363 12.5431 71.1525 13.0564 70.7312 13.4637C70.3098 13.8709 69.789 14.0747 69.1687 14.0747C68.5771 14.0747 68.0819 13.8877 67.6834 13.5136C67.2846 13.1397 67.0853 12.6642 67.0853 12.0879C67.0853 11.4691 67.2958 10.9558 67.7172 10.5484C68.1382 10.1413 68.6591 9.9375 69.2797 9.9375C69.8712 9.9375 70.3661 10.1239 70.765 10.4969C71.1638 10.87 71.363 11.3455 71.363 11.9243ZM70.4359 12.0119C70.4359 11.5904 70.316 11.2486 70.0765 10.9865C69.8365 10.7244 69.5409 10.5935 69.1893 10.5935C68.8621 10.5935 68.5843 10.7255 68.356 10.9896C68.1276 11.2537 68.0128 11.5873 68.0128 11.9908C68.0128 12.41 68.1332 12.7512 68.3741 13.0145C68.6149 13.2777 68.91 13.4092 69.2597 13.4092C69.5866 13.4092 69.8647 13.2766 70.093 13.0113C70.3214 12.7464 70.4359 12.413 70.4359 12.0119ZM73.2631 13.9657H72.3122C72.3413 13.3407 72.356 12.6543 72.356 11.9063C72.356 11.1704 72.3413 10.5442 72.3122 10.0282H73.2631C73.234 10.5364 73.2193 11.1622 73.2193 11.9063C73.2193 12.6662 73.234 13.3528 73.2631 13.9657ZM78.1337 11.8607C78.1337 12.4333 77.9297 12.9334 77.5221 13.3607C77.1143 13.7884 76.543 14.0018 75.8082 14.0018C75.4766 14.0018 75.0196 13.9897 74.4371 13.9655C74.4662 13.3565 74.4809 12.6698 74.4809 11.906C74.4809 11.1724 74.4663 10.5462 74.4371 10.0279H75.0252C75.1216 10.0279 75.2649 10.0248 75.4554 10.0189C75.6456 10.013 75.7701 10.0099 75.8283 10.0099C76.6369 10.0099 77.2231 10.1915 77.5875 10.5544C77.9516 10.9173 78.1337 11.3525 78.1337 11.8607ZM77.2165 11.9907C77.2165 11.6036 77.0911 11.2776 76.8402 11.0121C76.5893 10.7472 76.2061 10.6146 75.6909 10.6146C75.5945 10.6146 75.4625 10.6236 75.2942 10.6419C75.3164 11.0453 75.3277 11.4665 75.3277 11.906C75.3277 12.388 75.339 12.8658 75.3611 13.3396C75.5049 13.3657 75.6512 13.3789 75.7978 13.379C76.2796 13.379 76.6362 13.2442 76.868 12.975C77.0998 12.7059 77.2165 12.3779 77.2165 11.9907ZM84.5953 13.9657H83.5198C83.5198 13.8326 83.4178 13.4556 83.2136 12.8345H81.661C81.4505 13.4455 81.3451 13.8224 81.3451 13.9657H80.3341C80.3341 13.8872 80.5956 13.2419 81.1186 12.0302C81.6416 10.8184 81.9032 10.1509 81.9032 10.0282H83.1735C83.1735 10.143 83.4106 10.8007 83.8842 12.0015C84.3578 13.2022 84.5953 13.8568 84.5953 13.9657ZM83.0428 12.2568C82.6595 11.2165 82.4678 10.654 82.4678 10.5693H82.414C82.414 10.6478 82.2159 11.2103 81.8196 12.2568H83.0428ZM88.5149 11.0592C88.5149 11.5412 88.3159 11.897 87.9183 12.1267C87.5207 12.3565 87.033 12.4716 86.4549 12.4716C86.3495 12.4716 86.2748 12.4696 86.2297 12.4657C86.2297 12.8449 86.2419 13.3447 86.2666 13.9657H85.3222C85.3513 13.3832 85.366 12.6966 85.366 11.9063C85.366 11.1805 85.3513 10.5544 85.3222 10.0282H85.9069C85.9897 10.0282 86.1486 10.0251 86.3839 10.0192C86.6192 10.0133 86.8228 10.0101 86.9955 10.0101C87.4209 10.0101 87.7806 10.0968 88.0741 10.2703C88.3675 10.4437 88.5149 10.7064 88.5149 11.0592ZM87.648 11.2256C87.648 10.7942 87.3299 10.5783 86.6936 10.5783C86.5344 10.5783 86.3664 10.5935 86.1897 10.6236C86.2144 11.0048 86.2266 11.4361 86.2266 11.9181C86.2826 11.9224 86.3477 11.924 86.4215 11.924C87.2392 11.9243 87.648 11.6915 87.648 11.2256ZM92.5452 11.0592C92.5452 11.5412 92.3463 11.897 91.949 12.1267C91.5514 12.3565 91.0634 12.4716 90.4853 12.4716C90.3799 12.4716 90.3051 12.4696 90.2601 12.4657C90.2601 12.8449 90.2723 13.3447 90.297 13.9657H89.3526C89.3817 13.3832 89.3964 12.6966 89.3964 11.9063C89.3964 11.1805 89.3817 10.5544 89.3526 10.0282H89.9373C90.0202 10.0282 90.1791 10.0251 90.4143 10.0192C90.6495 10.0133 90.8532 10.0101 91.0259 10.0101C91.4513 10.0101 91.811 10.0968 92.1045 10.2703C92.3979 10.4437 92.5452 10.7064 92.5452 11.0592ZM91.6784 11.2256C91.6784 10.7942 91.3603 10.5783 90.724 10.5783C90.5648 10.5783 90.3968 10.5935 90.2201 10.6236C90.2447 11.0048 90.257 11.4361 90.257 11.9181C90.3129 11.9224 90.378 11.924 90.4519 11.924C91.2695 11.9243 91.6784 11.6915 91.6784 11.2256ZM99.1347 11.9243C99.1347 12.5431 98.9242 13.0564 98.5028 13.4637C98.0815 13.8711 97.5606 14.0747 96.9403 14.0747C96.3488 14.0747 95.8536 13.8877 95.4551 13.5136C95.0565 13.1397 94.857 12.6642 94.857 12.0879C94.857 11.4691 95.0675 10.9558 95.4888 10.5484C95.9102 10.1411 96.4311 9.9375 97.0513 9.9375C97.6429 9.9375 98.1381 10.1239 98.5366 10.4969C98.9351 10.87 99.1347 11.3455 99.1347 11.9243ZM98.2072 12.0119C98.2072 11.5904 98.0874 11.2486 97.8478 10.9865C97.6082 10.7244 97.3122 10.5935 96.9607 10.5935C96.6334 10.5935 96.3556 10.7255 96.1273 10.9896C95.8989 11.2537 95.7844 11.5873 95.7844 11.9908C95.7844 12.41 95.9049 12.7512 96.1457 13.0145C96.3866 13.2777 96.6816 13.4092 97.031 13.4092C97.3582 13.4092 97.636 13.2766 97.8644 13.0114C98.093 12.7464 98.2072 12.413 98.2072 12.0119ZM103.689 13.9657H102.859C102.859 13.883 102.552 13.4466 101.935 12.6563C101.29 11.8235 100.923 11.2543 100.833 10.9477H100.78C100.836 11.3891 100.864 11.7883 100.864 12.1454C100.864 12.6434 100.879 13.2504 100.911 13.966H100.084C100.117 13.341 100.134 12.6546 100.134 11.9066C100.134 11.1707 100.117 10.5445 100.084 10.0285H101.082C101.082 10.1355 101.359 10.562 101.912 11.3078C102.501 12.1 102.839 12.6375 102.926 12.9199H102.977C102.923 12.4702 102.896 12.0671 102.896 11.7101C102.896 11.1639 102.88 10.6031 102.849 10.0285H103.689C103.658 10.5285 103.642 11.1546 103.642 11.9066C103.642 12.6642 103.658 13.3506 103.689 13.9657Z" fill="#F9F9FA"/>
</g>
<defs>
<linearGradient id="paint0_linear_657_590" x1="20.937" y1="9.5164" x2="20.937" y2="41.4153" gradientUnits="userSpaceOnUse">
<stop stop-color="#257CB0"/>
<stop offset="0.286" stop-color="#4A93B5"/>
<stop offset="0.767" stop-color="#78BCBB"/>
<stop offset="1" stop-color="#89CFBD"/>
</linearGradient>
<linearGradient id="paint1_linear_657_590" x1="12.001" y1="17.4329" x2="34.6737" y2="17.4329" gradientUnits="userSpaceOnUse">
<stop stop-color="#52C1AD"/>
<stop offset="1" stop-color="#DEE89A"/>
</linearGradient>
<linearGradient id="paint2_linear_657_590" x1="23.3369" y1="25.4661" x2="23.3369" y2="41.5314" gradientUnits="userSpaceOnUse">
<stop stop-color="#EC413D"/>
<stop offset="0.167" stop-color="#DA4452"/>
<stop offset="0.575" stop-color="#B0487A"/>
<stop offset="0.862" stop-color="#954A92"/>
<stop offset="1" stop-color="#8A4A9D"/>
</linearGradient>
<linearGradient id="paint3_linear_657_590" x1="36.3961" y1="21.1819" x2="36.3961" y2="29.7494" gradientUnits="userSpaceOnUse">
<stop stop-color="#F58879"/>
<stop offset="0.119" stop-color="#F69079"/>
<stop offset="0.713" stop-color="#FCB877"/>
<stop offset="1" stop-color="#FEC874"/>
</linearGradient>
<clipPath id="clip0_657_590">
<rect width="160" height="48" fill="white"/>
</clipPath>
</defs>
</svg>
