<svg width="48" height="48" viewBox="0 0 48 48" fill="none" xmlns="http://www.w3.org/2000/svg">
<path d="M35.249 14.1649L39.414 9.99994L38 8.58594L33.577 13.0089C30.812 11.2549 27.587 9.99994 24 9.99994C12 9.99994 4 23.9999 4 23.9999C4 23.9999 7.267 29.7079 12.751 33.8349L8.586 37.9999L10 39.4139L14.423 34.9909C17.188 36.7449 20.413 37.9999 24 37.9999C36 37.9999 44 23.9999 44 23.9999C44 23.9999 40.733 18.2919 35.249 14.1649ZM6.362 23.9979C8.373 20.9579 15.058 11.9999 24 11.9999C26.987 11.9999 29.718 13.0169 32.116 14.4699L28.9 17.6859C27.546 16.6329 25.848 15.9999 24 15.9999C19.582 15.9999 16 19.5819 16 23.9999C16 25.8479 16.633 27.5459 17.686 28.8999L14.19 32.3959C10.316 29.5469 7.537 25.7679 6.362 23.9979ZM30 23.9999C30 27.3079 27.308 29.9999 24 29.9999C22.706 29.9999 21.51 29.5839 20.529 28.8849L28.885 20.5289C29.584 21.5099 30 22.7059 30 23.9999ZM18 23.9999C18 20.6919 20.692 17.9999 24 17.9999C25.294 17.9999 26.49 18.4159 27.471 19.1149L19.115 27.4709C18.416 26.4899 18 25.2939 18 23.9999ZM24 35.9999C21.013 35.9999 18.282 34.9829 15.884 33.5299L19.1 30.3139C20.454 31.3669 22.152 31.9999 24 31.9999C28.418 31.9999 32 28.4179 32 23.9999C32 22.1519 31.367 20.4539 30.314 19.0999L33.81 15.6039C37.683 18.4529 40.462 22.2319 41.637 24.0029C39.627 27.0419 32.942 35.9999 24 35.9999Z" fill="black"/>
</svg>
